<svg width="649" height="392" viewBox="0 0 649 392" fill="none" xmlns="http://www.w3.org/2000/svg">
<g filter="url(#filter0_b_42_58)">
<rect width="649" height="392" rx="80" fill="#E3E2E5"/>
<path d="M82.115 191.27H74.96L72.575 205.13H72.35C71.945 204.005 71.36 202.7 70.865 201.755L65.285 191.27H58.085L53.45 218H60.605L63.215 202.88H63.44C63.89 204.05 64.43 205.22 65.015 206.3L71.135 218H77.48L82.115 191.27ZM82.1516 209.315C82.1516 214.445 85.9316 218.45 91.9166 218.45C98.8916 218.45 103.932 213.77 103.932 206.885C103.932 201.755 100.152 197.75 94.1666 197.75C87.1916 197.75 82.1516 202.43 82.1516 209.315ZM89.6216 208.775C89.6216 205.895 91.0616 204.005 93.4016 204.005C95.3366 204.005 96.4616 205.4 96.4616 207.425C96.4616 210.305 95.0666 212.195 92.6366 212.195C90.7016 212.195 89.6216 210.8 89.6216 208.775ZM135.777 218L137.892 205.805C138.027 205.04 138.162 204.185 138.162 203.51C138.162 199.64 135.777 197.75 132.177 197.75C129.747 197.75 127.632 198.605 125.562 200.585C124.752 198.965 122.997 197.75 120.522 197.75C118.587 197.75 116.697 198.515 114.987 199.865L115.302 198.065L108.012 198.335L104.592 218H111.837L114.042 205.31C114.762 204.59 115.977 204.095 116.877 204.095C118.092 204.095 118.632 204.68 118.632 205.625C118.632 205.94 118.587 206.3 118.497 206.84L116.562 218H123.807L125.652 207.38C125.787 206.66 125.922 205.94 126.012 205.31C126.732 204.59 127.947 204.095 128.847 204.095C130.062 204.095 130.602 204.68 130.602 205.625C130.602 205.94 130.557 206.3 130.467 206.84L128.532 218H135.777ZM173.471 199.775C173.471 194.735 170.051 191.27 163.121 191.27H153.446L148.811 218H156.326L157.676 210.26H160.196C168.206 210.26 173.471 206.795 173.471 199.775ZM165.776 200.18C165.776 202.745 164.156 204.14 160.916 204.14H158.711L159.881 197.39H162.131C164.651 197.39 165.776 198.425 165.776 200.18ZM190.071 197.93C189.846 197.84 189.306 197.75 188.946 197.75C187.146 197.75 185.346 198.335 183.276 200.36L183.681 198.065L176.391 198.335L172.971 218H180.216L182.376 205.535C183.861 204.77 185.121 204.455 186.471 204.455C187.461 204.455 188.316 204.68 188.631 204.86L190.071 197.93ZM209.134 209.585C209.449 208.235 209.584 207.02 209.584 206.03C209.584 200.72 205.804 197.75 200.674 197.75C194.059 197.75 189.334 202.43 189.334 209.315C189.334 214.58 192.889 218.45 200.224 218.45C202.789 218.45 205.849 218 207.469 216.875L208.234 210.8C206.524 211.7 203.959 212.195 202.159 212.195C199.099 212.195 197.524 211.475 196.984 210.125L209.134 209.585ZM200.269 202.835C201.844 202.835 202.609 203.825 202.609 205.13C202.609 205.265 202.609 205.49 202.564 205.85L197.029 206.12C197.299 204.095 198.514 202.835 200.269 202.835ZM229.945 218L232.06 205.805C232.195 205.04 232.33 203.735 232.33 203.24C232.33 199.55 230.17 197.75 226.525 197.75C224.41 197.75 222.475 198.47 220.72 199.865L221.035 198.065L213.745 198.335L210.325 218H217.57L219.775 205.31C220.765 204.5 221.845 204.095 222.88 204.095C224.14 204.095 224.77 204.68 224.77 205.625C224.77 205.85 224.725 206.39 224.635 206.84L222.7 218H229.945ZM234.158 209.315C234.158 214.445 237.938 218.45 243.923 218.45C250.898 218.45 255.938 213.77 255.938 206.885C255.938 201.755 252.158 197.75 246.173 197.75C239.198 197.75 234.158 202.43 234.158 209.315ZM241.628 208.775C241.628 205.895 243.068 204.005 245.408 204.005C247.343 204.005 248.468 205.4 248.468 207.425C248.468 210.305 247.073 212.195 244.643 212.195C242.708 212.195 241.628 210.8 241.628 208.775ZM287.784 218L289.899 205.805C290.034 205.04 290.169 204.185 290.169 203.51C290.169 199.64 287.784 197.75 284.184 197.75C281.754 197.75 279.639 198.605 277.569 200.585C276.759 198.965 275.004 197.75 272.529 197.75C270.594 197.75 268.704 198.515 266.994 199.865L267.309 198.065L260.019 198.335L256.599 218H263.844L266.049 205.31C266.769 204.59 267.984 204.095 268.884 204.095C270.099 204.095 270.639 204.68 270.639 205.625C270.639 205.94 270.594 206.3 270.504 206.84L268.569 218H275.814L277.659 207.38C277.794 206.66 277.929 205.94 278.019 205.31C278.739 204.59 279.954 204.095 280.854 204.095C282.069 204.095 282.609 204.68 282.609 205.625C282.609 205.94 282.564 206.3 282.474 206.84L280.539 218H287.784Z" fill="#111111"/>
<path d="M69.38 268.892C69.38 262.844 66.752 259.604 61.892 259.604C57.032 259.604 54.44 262.88 54.44 268.892C54.44 274.976 57.032 278.216 61.892 278.216C66.752 278.216 69.38 274.94 69.38 268.892ZM66.932 268.892C66.932 273.752 65.312 276.2 61.892 276.2C58.508 276.2 56.888 273.752 56.888 268.892C56.888 264.104 58.508 261.62 61.892 261.62C65.312 261.62 66.932 264.068 66.932 268.892ZM87.2042 268.892C87.2042 262.844 84.5762 259.604 79.7162 259.604C74.8562 259.604 72.2642 262.88 72.2642 268.892C72.2642 274.976 74.8562 278.216 79.7162 278.216C84.5762 278.216 87.2042 274.94 87.2042 268.892ZM84.7562 268.892C84.7562 273.752 83.1362 276.2 79.7162 276.2C76.3322 276.2 74.7122 273.752 74.7122 268.892C74.7122 264.104 76.3322 261.62 79.7162 261.62C83.1362 261.62 84.7562 264.068 84.7562 268.892ZM105.028 268.892C105.028 262.844 102.4 259.604 97.5404 259.604C92.6804 259.604 90.0884 262.88 90.0884 268.892C90.0884 274.976 92.6804 278.216 97.5404 278.216C102.4 278.216 105.028 274.94 105.028 268.892ZM102.58 268.892C102.58 273.752 100.96 276.2 97.5404 276.2C94.1564 276.2 92.5364 273.752 92.5364 268.892C92.5364 264.104 94.1564 261.62 97.5404 261.62C100.96 261.62 102.58 264.068 102.58 268.892ZM122.853 268.892C122.853 262.844 120.225 259.604 115.365 259.604C110.505 259.604 107.913 262.88 107.913 268.892C107.913 274.976 110.505 278.216 115.365 278.216C120.225 278.216 122.853 274.94 122.853 268.892ZM120.405 268.892C120.405 273.752 118.785 276.2 115.365 276.2C111.981 276.2 110.361 273.752 110.361 268.892C110.361 264.104 111.981 261.62 115.365 261.62C118.785 261.62 120.405 264.068 120.405 268.892ZM133.768 268.964H125.344V271.052H133.768V268.964ZM151.329 268.892C151.329 262.844 148.701 259.604 143.841 259.604C138.981 259.604 136.389 262.88 136.389 268.892C136.389 274.976 138.981 278.216 143.841 278.216C148.701 278.216 151.329 274.94 151.329 268.892ZM148.881 268.892C148.881 273.752 147.261 276.2 143.841 276.2C140.457 276.2 138.837 273.752 138.837 268.892C138.837 264.104 140.457 261.62 143.841 261.62C147.261 261.62 148.881 264.068 148.881 268.892ZM169.153 268.892C169.153 262.844 166.525 259.604 161.665 259.604C156.805 259.604 154.213 262.88 154.213 268.892C154.213 274.976 156.805 278.216 161.665 278.216C166.525 278.216 169.153 274.94 169.153 268.892ZM166.705 268.892C166.705 273.752 165.085 276.2 161.665 276.2C158.281 276.2 156.661 273.752 156.661 268.892C156.661 264.104 158.281 261.62 161.665 261.62C165.085 261.62 166.705 264.068 166.705 268.892ZM186.978 268.892C186.978 262.844 184.35 259.604 179.49 259.604C174.63 259.604 172.038 262.88 172.038 268.892C172.038 274.976 174.63 278.216 179.49 278.216C184.35 278.216 186.978 274.94 186.978 268.892ZM184.53 268.892C184.53 273.752 182.91 276.2 179.49 276.2C176.106 276.2 174.486 273.752 174.486 268.892C174.486 264.104 176.106 261.62 179.49 261.62C182.91 261.62 184.53 264.068 184.53 268.892ZM204.802 268.892C204.802 262.844 202.174 259.604 197.314 259.604C192.454 259.604 189.862 262.88 189.862 268.892C189.862 274.976 192.454 278.216 197.314 278.216C202.174 278.216 204.802 274.94 204.802 268.892ZM202.354 268.892C202.354 273.752 200.734 276.2 197.314 276.2C193.93 276.2 192.31 273.752 192.31 268.892C192.31 264.104 193.93 261.62 197.314 261.62C200.734 261.62 202.354 264.068 202.354 268.892ZM215.717 268.964H207.293V271.052H215.717V268.964ZM233.278 268.892C233.278 262.844 230.65 259.604 225.79 259.604C220.93 259.604 218.338 262.88 218.338 268.892C218.338 274.976 220.93 278.216 225.79 278.216C230.65 278.216 233.278 274.94 233.278 268.892ZM230.83 268.892C230.83 273.752 229.21 276.2 225.79 276.2C222.406 276.2 220.786 273.752 220.786 268.892C220.786 264.104 222.406 261.62 225.79 261.62C229.21 261.62 230.83 264.068 230.83 268.892ZM251.103 268.892C251.103 262.844 248.475 259.604 243.615 259.604C238.755 259.604 236.163 262.88 236.163 268.892C236.163 274.976 238.755 278.216 243.615 278.216C248.475 278.216 251.103 274.94 251.103 268.892ZM248.655 268.892C248.655 273.752 247.035 276.2 243.615 276.2C240.231 276.2 238.611 273.752 238.611 268.892C238.611 264.104 240.231 261.62 243.615 261.62C247.035 261.62 248.655 264.068 248.655 268.892ZM268.927 268.892C268.927 262.844 266.299 259.604 261.439 259.604C256.579 259.604 253.987 262.88 253.987 268.892C253.987 274.976 256.579 278.216 261.439 278.216C266.299 278.216 268.927 274.94 268.927 268.892ZM266.479 268.892C266.479 273.752 264.859 276.2 261.439 276.2C258.055 276.2 256.435 273.752 256.435 268.892C256.435 264.104 258.055 261.62 261.439 261.62C264.859 261.62 266.479 264.068 266.479 268.892ZM286.751 268.892C286.751 262.844 284.123 259.604 279.263 259.604C274.403 259.604 271.811 262.88 271.811 268.892C271.811 274.976 274.403 278.216 279.263 278.216C284.123 278.216 286.751 274.94 286.751 268.892ZM284.303 268.892C284.303 273.752 282.683 276.2 279.263 276.2C275.879 276.2 274.259 273.752 274.259 268.892C274.259 264.104 275.879 261.62 279.263 261.62C282.683 261.62 284.303 264.068 284.303 268.892ZM297.667 268.964H289.243V271.052H297.667V268.964ZM315.228 268.892C315.228 262.844 312.6 259.604 307.74 259.604C302.88 259.604 300.288 262.88 300.288 268.892C300.288 274.976 302.88 278.216 307.74 278.216C312.6 278.216 315.228 274.94 315.228 268.892ZM312.78 268.892C312.78 273.752 311.16 276.2 307.74 276.2C304.356 276.2 302.736 273.752 302.736 268.892C302.736 264.104 304.356 261.62 307.74 261.62C311.16 261.62 312.78 264.068 312.78 268.892ZM333.052 268.892C333.052 262.844 330.424 259.604 325.564 259.604C320.704 259.604 318.112 262.88 318.112 268.892C318.112 274.976 320.704 278.216 325.564 278.216C330.424 278.216 333.052 274.94 333.052 268.892ZM330.604 268.892C330.604 273.752 328.984 276.2 325.564 276.2C322.18 276.2 320.56 273.752 320.56 268.892C320.56 264.104 322.18 261.62 325.564 261.62C328.984 261.62 330.604 264.068 330.604 268.892ZM350.876 268.892C350.876 262.844 348.248 259.604 343.388 259.604C338.528 259.604 335.936 262.88 335.936 268.892C335.936 274.976 338.528 278.216 343.388 278.216C348.248 278.216 350.876 274.94 350.876 268.892ZM348.428 268.892C348.428 273.752 346.808 276.2 343.388 276.2C340.004 276.2 338.384 273.752 338.384 268.892C338.384 264.104 340.004 261.62 343.388 261.62C346.808 261.62 348.428 264.068 348.428 268.892ZM368.7 268.892C368.7 262.844 366.072 259.604 361.212 259.604C356.352 259.604 353.76 262.88 353.76 268.892C353.76 274.976 356.352 278.216 361.212 278.216C366.072 278.216 368.7 274.94 368.7 268.892ZM366.252 268.892C366.252 273.752 364.632 276.2 361.212 276.2C357.828 276.2 356.208 273.752 356.208 268.892C356.208 264.104 357.828 261.62 361.212 261.62C364.632 261.62 366.252 264.068 366.252 268.892Z" fill="#111111"/>
<path d="M70.64 311.892C70.64 305.736 67.472 302.496 62.216 302.496C56.96 302.496 53.792 305.808 53.792 311.892C53.792 318.048 56.96 321.324 62.216 321.324C67.472 321.324 70.64 318.012 70.64 311.892ZM65.78 311.928C65.78 315.78 64.592 317.4 62.216 317.4C59.84 317.4 58.652 315.78 58.652 311.892C58.652 308.076 59.84 306.42 62.216 306.42C64.592 306.42 65.78 308.04 65.78 311.928ZM72.3621 309.228C72.3621 312.864 74.6301 315.168 78.0141 315.744C79.0581 315.888 80.0661 315.852 80.9661 315.744C79.5261 317.724 77.2941 319.992 74.0901 322.728L79.4181 323.736C86.7981 317.004 88.7781 313.044 88.7781 308.832C88.7781 304.368 85.4661 301.704 80.6421 301.704C75.9261 301.704 72.3621 304.728 72.3621 309.228ZM77.3661 309.12C77.3661 307.068 78.5541 305.736 80.5341 305.736C82.5501 305.736 83.7381 306.996 83.7381 309.192C83.7381 310.164 83.5941 311.1 83.1981 312.108C82.6581 312.324 82.0101 312.432 81.3261 312.432C79.0941 312.432 77.3661 311.424 77.3661 309.12ZM99.1042 311.064H90.6802V314.952H99.1042V311.064ZM117.925 315.6H115.765V310.344L111.013 310.524V315.924H105.685L112.849 302.82L107.953 302.532L101.221 315.312V319.92H111.013V324.204H115.765V319.92H117.565L117.925 315.6ZM119.507 309.228C119.507 312.864 121.775 315.168 125.159 315.744C126.203 315.888 127.211 315.852 128.111 315.744C126.671 317.724 124.439 319.992 121.235 322.728L126.563 323.736C133.943 317.004 135.923 313.044 135.923 308.832C135.923 304.368 132.611 301.704 127.787 301.704C123.071 301.704 119.507 304.728 119.507 309.228ZM124.511 309.12C124.511 307.068 125.699 305.736 127.679 305.736C129.695 305.736 130.883 306.996 130.883 309.192C130.883 310.164 130.739 311.1 130.343 312.108C129.803 312.324 129.155 312.432 128.471 312.432C126.239 312.432 124.511 311.424 124.511 309.12Z" fill="#111111"/>
<g clip-path="url(#clip0_42_58)">
<path d="M70.4404 87C65.8172 86.9924 61.3856 85.1441 58.1165 81.8599C54.8474 78.5758 53.0075 74.1237 53 69.4792V50H68.5325V69.4792C68.5326 69.7304 68.5828 69.979 68.6802 70.2104C68.7776 70.4418 68.9201 70.6512 69.0994 70.8263C69.2747 71.0052 69.4834 71.1475 69.7135 71.2452C69.9436 71.343 70.1906 71.3942 70.4404 71.3959C70.9443 71.3891 71.4257 71.185 71.7821 70.827C72.1385 70.469 72.3416 69.9854 72.3483 69.4792V50H87.8808V69.4792C87.876 74.1245 86.037 78.5782 82.7674 81.8629C79.4977 85.1477 75.0644 86.9952 70.4404 87Z" fill="#111111"/>
<path d="M126.901 87H111.369V67.5208C111.369 67.2694 111.318 67.0204 111.221 66.789C111.123 66.5575 110.979 66.3482 110.799 66.1737C110.625 65.9946 110.416 65.852 110.187 65.7543C109.957 65.6565 109.71 65.6055 109.461 65.6041C108.957 65.6102 108.475 65.8141 108.118 66.1722C107.762 66.5304 107.559 67.0144 107.553 67.5208V87H92.0203V67.5208C92.0203 62.874 93.8577 58.4175 97.1284 55.1317C100.399 51.8459 104.835 50 109.461 50C114.086 50 118.522 51.8459 121.793 55.1317C125.064 58.4175 126.901 62.874 126.901 67.5208V87Z" fill="#111111"/>
<path d="M185.345 87.0001H173.721C164.107 87.0001 156.281 78.7169 156.281 68.5352C156.252 63.6865 158.085 59.0133 161.399 55.4875C162.974 53.7845 164.88 52.4249 167 51.493C169.12 50.5611 171.407 50.0768 173.721 50.0703H185.345V66.5145H173.721C173.468 66.5165 173.219 66.5712 172.988 66.675C172.757 66.7789 172.55 66.9296 172.38 67.1178C172.018 67.5001 171.815 68.0073 171.813 68.5352C171.807 69.0553 172.003 69.5574 172.359 69.9348C172.715 70.3121 173.204 70.535 173.721 70.5559H185.345V87.0001Z" fill="#111111"/>
<path d="M150.459 50.0703H134.926V87.0001H150.459V50.0703Z" fill="#111111"/>
<path d="M206.894 71.3955H197.574C195.858 71.3955 194.468 72.7927 194.468 74.5163V83.8788C194.468 85.6024 195.858 86.9996 197.574 86.9996H206.894C208.609 86.9996 210 85.6024 210 83.8788V74.5163C210 72.7927 208.609 71.3955 206.894 71.3955Z" fill="#111111"/>
</g>
<path fill-rule="evenodd" clip-rule="evenodd" d="M560.685 250L581.343 276.046V300.889V302.327L562.296 326.343H559.973L541.231 302.712V275.148H540.74L560.685 250ZM584.343 300.889H615.099C616.504 296.911 617.269 292.63 617.269 288.171C617.269 283.933 616.578 279.856 615.303 276.046L584.343 276.046V300.889ZM538.231 276.046V300.889H507.17C505.765 296.911 505 292.63 505 288.171C505 283.933 505.691 279.856 506.966 276.046H538.231ZM538.336 303.889H508.376C514.366 317.13 527.693 326.343 543.171 326.343H556.144L538.336 303.889ZM566.125 326.343L583.933 303.889H613.893C607.902 317.13 594.576 326.343 579.097 326.343H566.125ZM564.514 250L582.792 273.046H614.155C608.297 259.488 594.805 250 579.097 250L564.514 250ZM508.114 273.046H538.578L556.856 250H543.171C527.463 250 513.971 259.488 508.114 273.046Z" fill="#111111"/>
<rect x="420.5" y="51.5" width="195" height="87" rx="43.5" stroke="#111111" stroke-width="3"/>
<rect x="468.5" y="104.5" width="147" height="65" rx="32.5" stroke="#111111" stroke-width="3"/>
<rect x="0.5" y="0.5" width="648" height="391" rx="79.5" stroke="black"/>
</g>
<defs>
<filter id="filter0_b_42_58" x="-4" y="-4" width="657" height="400" filterUnits="userSpaceOnUse" color-interpolation-filters="sRGB">
<feFlood flood-opacity="0" result="BackgroundImageFix"/>
<feGaussianBlur in="BackgroundImage" stdDeviation="2"/>
<feComposite in2="SourceAlpha" operator="in" result="effect1_backgroundBlur_42_58"/>
<feBlend mode="normal" in="SourceGraphic" in2="effect1_backgroundBlur_42_58" result="shape"/>
</filter>
<clipPath id="clip0_42_58">
<rect width="157" height="37" fill="white" transform="translate(53 50)"/>
</clipPath>
</defs>
</svg>
