<svg xmlns="http://www.w3.org/2000/svg" viewBox="0 0 606.47 142.27"><defs><style>.cls-1{fill:#111;}</style></defs><g id="Calque_2" data-name="Calque 2"><g id="Calque_1-2" data-name="Calque 1"><path class="cls-1" d="M67.37,142.27A67.48,67.48,0,0,1,0,74.9V0H60V74.9a7.23,7.23,0,0,0,2.19,5.18,7.34,7.34,0,0,0,5.18,2.19,7.46,7.46,0,0,0,7.37-7.37V0h60V74.9A67.44,67.44,0,0,1,67.37,142.27Z"/><path class="cls-1" d="M285.47,142.27h-60V67.37a7.19,7.19,0,0,0-2.2-5.18A7.29,7.29,0,0,0,218.1,60a7.47,7.47,0,0,0-7.37,7.37v74.9h-60V67.37a67.37,67.37,0,0,1,134.74,0Z"/><path class="cls-1" d="M511.23,142.27h-44.9c-37.14,0-67.37-31.85-67.37-71A72.48,72.48,0,0,1,418.73,21.1,65.22,65.22,0,0,1,466.33.27h44.9V63.5h-44.9a7.07,7.07,0,0,0-5.18,2.32A7.89,7.89,0,0,0,459,71.27,7.68,7.68,0,0,0,466.33,79h44.9Z"/><rect class="cls-1" x="316.47" y="0.27" width="60" height="142"/><rect class="cls-1" x="546.47" y="82.27" width="60" height="60" rx="12"/></g></g></svg>